<?xml version="1.0" encoding="utf-8"?>
<svg xmlns="http://www.w3.org/2000/svg" viewBox="0 0 32 32" width="512" height="512">
  <path d="M16.0625 1.648438C16.0625 1.648438 13.074219 9.601563 9.132813 16.503906C5.621094 22.644531 1.269531 27.316406 1.269531 27.316406L2.242188 28.96875C2.242188 28.96875 10.191406 27 17 27C21.425781 27 24.597656 27.492188 26.644531 27.972656C28.695313 28.453125 29.550781 28.894531 29.550781 28.894531L31 28L31 11L29.105469 10.550781C28.015625 12.734375 26.25 14.28125 25 15.183594L25 6L23.007813 5.875C23.007813 5.875 22.140625 11.996094 18 15.175781L18 2 Z M 16 7.078125L16 25.058594C11.195313 25.175781 7.230469 25.882813 4.625 26.4375C6.242188 24.507813 8.5 21.640625 10.871094 17.496094C12.972656 13.8125 14.734375 10.011719 16 7.078125 Z M 23 11.953125L23 25.328125C21.570313 25.164063 19.875 25.058594 18 25.027344L18 17.578125C20.457031 16.164063 21.953125 14.019531 23 11.953125 Z M 29 14.246094L29 26.640625C28.449219 26.425781 28.351563 26.320313 27.105469 26.027344C26.496094 25.882813 25.78125 25.746094 25 25.613281L25 17.578125C25.828125 17.089844 27.472656 16.003906 29 14.246094Z" fill="#0015FF" />
</svg>